<svg xmlns="http://www.w3.org/2000/svg" aria-label="Kitsune Stack Template logo" role="img" viewBox="0 0 920 240"><defs><linearGradient id="word" x1="0" x2="1" y1="0" y2="1"><stop offset="0" stop-color="#f5e9db"/><stop offset="1" stop-color="#d8c5ac"/></linearGradient><linearGradient id="accent" x1="0" x2="1" y1="0" y2="1"><stop offset="0" stop-color="#d7ae7f"/><stop offset="1" stop-color="#67c8ba"/></linearGradient><linearGradient id="mark-bg" x1="8" x2="56" y1="6" y2="58" gradientUnits="userSpaceOnUse"><stop offset="0" stop-color="#0f151d"/><stop offset="1" stop-color="#080c11"/></linearGradient><linearGradient id="mark-slash" x1="30" x2="36" y1="49" y2="14" gradientUnits="userSpaceOnUse"><stop offset="0" stop-color="#d7ae7f"/><stop offset="1" stop-color="#67c8ba"/></linearGradient><radialGradient id="mark-glow-warm" cx="0" cy="0" r="1" gradientTransform="translate(22 19) rotate(65) scale(25)" gradientUnits="userSpaceOnUse"><stop offset="0" stop-color="#d7ae7f" stop-opacity=".35"/><stop offset="1" stop-color="#d7ae7f" stop-opacity="0"/></radialGradient><radialGradient id="mark-glow-cool" cx="0" cy="0" r="1" gradientTransform="translate(44 45) rotate(240) scale(24)" gradientUnits="userSpaceOnUse"><stop offset="0" stop-color="#67c8ba" stop-opacity=".33"/><stop offset="1" stop-color="#67c8ba" stop-opacity="0"/></radialGradient><filter id="shadow" width="140%" height="140%" x="-20%" y="-20%"><feDropShadow dx="0" dy="10" flood-color="#000" flood-opacity=".34" stdDeviation="12"/></filter></defs><g filter="url(#shadow)" transform="translate(10 10)"><rect width="220" height="220" x="0" y="0" fill="#080c11" rx="56"/><g transform="translate(14 14) scale(3)"><rect width="56" height="56" x="4" y="4" fill="url(#mark-bg)" rx="14"/><rect width="55" height="55" x="4.5" y="4.5" fill="none" stroke="rgba(255,255,255,0.14)" rx="13.5"/><circle cx="22" cy="19" r="17" fill="url(#mark-glow-warm)"/><circle cx="44" cy="45" r="17" fill="url(#mark-glow-cool)"/><path fill="none" stroke="#d7ae7f" stroke-linecap="round" stroke-linejoin="round" stroke-width="5.4" d="M24 18 L14 32 L24 46"/><path fill="none" stroke="#67c8ba" stroke-linecap="round" stroke-linejoin="round" stroke-width="5.4" d="M40 18 L50 32 L40 46"/><path fill="none" stroke="url(#mark-slash)" stroke-linecap="round" stroke-width="4.6" d="M29.5 49 L34.5 14"/><circle cx="31.2" cy="31.5" r="1.7" fill="#f5e9db" fill-opacity=".9"/></g></g><g transform="translate(265 0)"><text x="0" y="112" fill="url(#word)" font-family="Oxanium, 'Segoe UI', Tahoma, sans-serif" font-size="76" font-weight="700" letter-spacing="4">KITSUNE STACK</text><text x="0" y="176" fill="url(#accent)" font-family="Merriweather, Georgia, serif" font-size="42" font-weight="500" letter-spacing="8">TEMPLATE</text><rect width="520" height="3" x="0" y="192" fill="url(#accent)" opacity=".82" rx="2"/></g></svg>